<svg width="16" height="16" viewBox="0 0 16 16" fill="none" xmlns="http://www.w3.org/2000/svg">
    <path d="M6.31578 14.3158C8.87376 14.3158 10.9474 12.2422 10.9474 9.68419C10.9474 7.12621 8.87376 5.05261 6.31578 5.05261C3.75781 5.05261 1.68421 7.12621 1.68421 9.68419C1.68421 12.2422 3.75781 14.3158 6.31578 14.3158ZM6.31578 16C2.82779 16 0 13.1722 0 9.68419C0 6.19619 2.82779 3.36839 6.31578 3.36839C9.80378 3.36839 12.6316 6.19619 12.6316 9.68419C12.6316 13.1722 9.80378 16 6.31578 16Z" fill="white"/>
    <path d="M9.68431 10.9473C12.2423 10.9473 14.3159 8.87374 14.3159 6.31577C14.3159 3.75781 12.2423 1.68422 9.68431 1.68422C7.12634 1.68422 5.05274 3.75781 5.05274 6.31577C5.05274 8.87374 7.12634 10.9473 9.68431 10.9473ZM9.68431 12.6315C6.19632 12.6315 3.36853 9.80376 3.36853 6.31577C3.36853 2.82779 6.19632 1.52588e-05 9.68431 1.52588e-05C13.1723 1.52588e-05 16.0001 2.82779 16.0001 6.31577C16.0001 9.80376 13.1723 12.6315 9.68431 12.6315Z" fill="white"/>
</svg>
