<svg width="14" height="14" viewBox="0 0 14 14" fill="none" xmlns="http://www.w3.org/2000/svg">
    <path d="M5.4823 12.5263C7.7027 12.5263 9.50264 10.7119 9.50264 8.47363C9.50264 6.23535 7.7027 4.42092 5.4823 4.42092C3.26189 4.42092 1.46195 6.23535 1.46195 8.47363C1.46195 10.7119 3.26189 12.5263 5.4823 12.5263ZM5.4823 14C2.45461 14 0 11.5257 0 8.47363C0 5.42157 2.45461 2.9472 5.4823 2.9472C8.50998 2.9472 10.9646 5.42157 10.9646 8.47363C10.9646 11.5257 8.50998 14 5.4823 14Z" fill="#8A8E96"/>
    <path d="M8.40466 9.57907C10.6251 9.57907 12.425 7.76465 12.425 5.52639C12.425 3.28813 10.6251 1.4737 8.40466 1.4737C6.18426 1.4737 4.38431 3.28813 4.38431 5.52639C4.38431 7.76465 6.18426 9.57907 8.40466 9.57907ZM8.40466 11.0528C5.37697 11.0528 2.92236 8.57843 2.92236 5.52639C2.92236 2.47435 5.37697 0 8.40466 0C11.4324 0 13.887 2.47435 13.887 5.52639C13.887 8.57843 11.4324 11.0528 8.40466 11.0528Z" fill="#8A8E96"/>
</svg>
